<?xml version="1.0" encoding="utf-8"?>
<!-- Generator: Adobe Illustrator 22.0.0, SVG Export Plug-In . SVG Version: 6.00 Build 0)  -->
<svg version="1.1" id="Layer_1" xmlns="http://www.w3.org/2000/svg" xmlns:xlink="http://www.w3.org/1999/xlink" x="0px" y="0px"
	 viewBox="0 0 400 225" style="enable-background:new 0 0 400 225;" xml:space="preserve">
<image style="overflow:visible;" width="1920" height="876" xlink:href="beer-background.jpg"  transform="matrix(0.24 0 0 0.24 -30.4 -124)">
</image>
<image style="overflow:visible;" width="1921" height="565" xlink:href="41E5EB6A5D7136C3.jpg"  transform="matrix(0.24 0 0 -0.24 -30.52 221.84)">
</image>
<image style="overflow:visible;" width="1921" height="565" xlink:href="41E5EB6A5D7136C1.jpg"  transform="matrix(0.24 0 0 0.24 -30.52 221.84)">
</image>
<g>
	
		<image style="overflow:visible;" width="1921" height="565" xlink:href="41E5EB6A5D7136C7.jpg"  transform="matrix(0.24 0 0 -0.24 -31 492.6)">
	</image>
	
		<image style="overflow:visible;" width="1921" height="565" xlink:href="41E5EB6A5D7136C2.jpg"  transform="matrix(0.24 0 0 0.24 -31 492.6)">
	</image>
</g>
<g>
	
		<image style="overflow:visible;" width="1921" height="565" xlink:href="41E5EB6A5D7136CD.jpg"  transform="matrix(0.24 0 0 -0.24 -30.76 763.8)">
	</image>
	
		<image style="overflow:visible;" width="1921" height="565" xlink:href="41E5EB6A5D7136CE.jpg"  transform="matrix(0.24 0 0 0.24 -30.76 763.8)">
	</image>
	<g>
		
			<image style="overflow:visible;" width="1921" height="565" xlink:href="41E5EB6A5D7136CF.jpg"  transform="matrix(0.24 0 0 -0.24 -31.24 1034.5601)">
		</image>
		
			<image style="overflow:visible;" width="1921" height="565" xlink:href="41E5EB6A5D7136C4.jpg"  transform="matrix(0.24 0 0 0.24 -31.24 1034.5601)">
		</image>
	</g>
</g>
<g>
	
		<image style="overflow:visible;" width="1921" height="565" xlink:href="863B065F815CE9FA.jpg"  transform="matrix(0.24 0 0 -0.24 -30.88 1305.76)">
	</image>
	
		<image style="overflow:visible;" width="1921" height="565" xlink:href="863B065F815CE9FD.jpg"  transform="matrix(0.24 0 0 0.24 -30.88 1305.76)">
	</image>
	<g>
		
			<image style="overflow:visible;" width="1921" height="565" xlink:href="863B065F815CE9FE.jpg"  transform="matrix(0.24 0 0 -0.24 -31.36 1576.52)">
		</image>
		
			<image style="overflow:visible;" width="1921" height="565" xlink:href="863B065F815CE9FC.jpg"  transform="matrix(0.24 0 0 0.24 -31.36 1576.52)">
		</image>
	</g>
	<g>
		
			<image style="overflow:visible;" width="1921" height="565" xlink:href="863B065F815CE9FB.jpg"  transform="matrix(0.24 0 0 -0.24 -31.12 1847.72)">
		</image>
		
			<image style="overflow:visible;" width="1921" height="565" xlink:href="863B065F815CE9E5.jpg"  transform="matrix(0.24 0 0 0.24 -31.12 1847.72)">
		</image>
		<g>
			
				<image style="overflow:visible;" width="1921" height="565" xlink:href="863B065F815CE9E6.jpg"  transform="matrix(0.24 0 0 -0.24 -31.6 2118.48)">
			</image>
			
				<image style="overflow:visible;" width="1921" height="565" xlink:href="863B065F815CE9E4.jpg"  transform="matrix(0.24 0 0 0.24 -31.6 2118.48)">
			</image>
		</g>
	</g>
</g>
</svg>
